# xmcd
#
# Track frame offsets: 
#        182
#        10085
#        20650
#        31110
#        42990
#        55175
#        68452
#        79245
#        92407
#        104610
#        116707
#        131050
#        143022
#        155602
#        167672
#        178730
#        190370
#        202515
#
# Disc length: 2843 seconds
#
# Revision: 3
# Processed by: cddbd v1.5.2PL0 Copyright (c) Steve Scherf et al.
# Submitted via: ExactAudioCopyFreeDBPlugin 1.0
#
DISCID=e80b1912
DTITLE=Chuck Berry - Blues Berry
DYEAR=1992
DGENRE=Blues
TTITLE0=Memphis, Tennessee
TTITLE1=Almost Grown
TTITLE2=Maybellene
TTITLE3=Johnny B. Goode
TTITLE4=No Particular Place To Go
TTITLE5=No Money Down
TTITLE6=Thirty Days
TTITLE7=Too Much Monkey Business
TTITLE8=You Can't Catch Me
TTITLE9=School Day (Ring! Ring!  Goes The Bell)
TTITLE10=Sweet Little Sixteen
TTITLE11=Around and Around
TTITLE12=Carol
TTITLE13=Little Queenie
TTITLE14=Back In The USA
TTITLE15=Nadine (Is It You?)
TTITLE16=You Never Can Tell
TTITLE17=Promised Land
EXTD=
EXTT0=
EXTT1=
EXTT2=
EXTT3=
EXTT4=
EXTT5=
EXTT6=
EXTT7=
EXTT8=
EXTT9=
EXTT10=
EXTT11=
EXTT12=
EXTT13=
EXTT14=
EXTT15=
EXTT16=
EXTT17=
PLAYORDER=
